PathFileType	4	(X/Y/Z)	joints.trc
DataRate	CameraRate	NumFrames	NumMarkers	Units	OrigDataRate	OrigDataStartFrame	OrigNumFrames
30.0	30.0	14	17	m	30.0	76	100
Frame#	Time	smpl_pelvis			l_smpl_hip			r_smpl_hip			smpl_spine			l_smpl_knee			r_smpl_knee			l_smpl_ankle			r_smpl_ankle			l_smpl_mtp			r_smpl_mtp			smpl_head			l_smpl_shoulder			r_smpl_shoulder			l_smpl_elbow			r_smpl_elbow			l_smpl_hand			r_smpl_hand		
		X1	Y1	Z1	X2	Y2	Z2	X3	Y3	Z3	X4	Y4	Z4	X5	Y5	Z5	X6	Y6	Z6	X7	Y7	Z7	X8	Y8	Z8	X9	Y9	Z9	X10	Y10	Z10	X11	Y11	Z11	X12	Y12	Z12	X13	Y13	Z13	X14	Y14	Z14	X15	Y15	Z15	X16	Y16	Z16	X17	Y17	Z17
76	2.500000	0.020751	-0.202020	0.030680	0.101670	-0.254780	0.001735	-0.014132	-0.283998	-0.038470	0.012215	-0.080319	0.056670	0.151369	-0.470109	-0.298136	-0.151620	-0.646479	-0.150158	0.308405	-0.267989	-0.635792	-0.185286	-0.784414	-0.544974	0.315476	-0.365561	-0.736144	-0.245668	-0.917034	-0.556150	-0.105487	0.229912	0.418561	0.136082	0.149765	0.346170	-0.230112	0.213380	0.241623	0.356281	0.207140	0.462631	-0.385453	0.278690	0.051058	0.364991	-0.025220	0.572299	-0.633876	0.285974	0.131798
77	2.533333	-0.023218	-0.264942	0.051627	0.018867	-0.361150	0.057825	-0.096374	-0.333599	0.096278	-0.016815	-0.170832	-0.033162	0.098381	-0.677220	0.284397	-0.110449	-0.535849	0.441075	0.088596	-1.088848	0.179946	-0.027493	-0.945085	0.498795	0.149543	-1.147359	0.292841	-0.060462	-1.015656	0.626134	-0.064421	0.303677	-0.152008	0.147965	0.139613	-0.228384	-0.213586	0.182118	-0.095646	0.392884	0.157897	-0.317661	-0.436277	0.190332	0.046767	0.605380	0.314423	-0.313365	-0.533719	0.420684	0.137007
78	2.566667	-0.009089	-0.206665	0.032922	0.068462	-0.238962	-0.017102	-0.034187	-0.294910	-0.026642	-0.053127	-0.090908	0.057755	0.069502	-0.547025	-0.207731	0.120773	-0.551572	-0.237283	-0.196510	-0.373571	-0.473297	0.066034	-0.436630	-0.623451	-0.228295	-0.435607	-0.591476	0.112067	-0.541179	-0.712417	-0.203281	0.314285	0.285674	0.038975	0.266202	0.164483	-0.336715	0.166237	0.208118	0.289593	0.305064	0.152629	-0.522363	0.000770	0.239972	0.441412	0.286612	0.358361	-0.524440	-0.149163	0.450908
79	2.600000	-0.006662	-0.227420	0.030618	0.025113	-0.323595	0.007416	-0.096923	-0.288691	0.013769	0.033826	-0.112491	0.000855	-0.127910	-0.662583	0.134035	-0.380729	-0.563936	0.095017	0.011984	-0.619935	-0.258643	-0.408240	-0.825490	-0.225471	0.005694	-0.748479	-0.317857	-0.530150	-0.893803	-0.177542	-0.021412	0.368589	-0.048718	0.193096	0.264316	-0.133364	-0.182613	0.218769	-0.084915	0.299388	0.370479	-0.332442	-0.442805	0.256789	-0.116091	0.454403	0.554323	-0.234444	-0.634639	0.338640	0.048148
80	2.633333	-0.006723	-0.207560	0.029378	0.071182	-0.253164	-0.022383	-0.042869	-0.288758	-0.029153	-0.041980	-0.089387	0.058452	0.240710	-0.588758	-0.148395	0.035351	-0.496865	-0.323660	0.314308	-0.703255	-0.548827	-0.000813	-0.157568	-0.567678	0.343938	-0.835294	-0.526610	-0.022786	-0.194435	-0.709431	-0.145785	0.350422	0.275748	0.087358	0.206595	0.188301	-0.300978	0.256122	0.186456	0.343250	0.174944	0.143021	-0.529036	0.332451	0.080860	0.549797	0.194163	0.301875	-0.707343	0.381880	0.274843
81	2.666667	0.020636	-0.253250	0.031619	0.062200	-0.347419	0.039771	-0.052753	-0.327110	0.006734	0.065316	-0.139819	-0.018367	0.160925	-0.714371	-0.037551	-0.122765	-0.683503	0.124606	0.129309	-0.571224	-0.432197	0.112237	-0.988956	-0.050780	0.159726	-0.673742	-0.523463	0.083893	-1.133281	-0.058326	0.101034	0.291098	-0.244668	0.241469	0.069329	-0.229328	-0.085791	0.255389	-0.181131	0.445267	-0.076608	-0.206032	-0.309734	0.390167	-0.120882	0.424391	0.000741	0.035610	-0.143598	0.532900	-0.269876
82	2.700000	0.006372	-0.246102	0.023647	0.077334	-0.318097	0.013824	-0.040936	-0.340921	0.002665	0.000555	-0.121326	-0.016970	0.165368	-0.653998	-0.137557	-0.177723	-0.646919	-0.177828	-0.017288	-0.651209	-0.520719	-0.154000	-0.623529	-0.600754	0.025098	-0.755301	-0.607041	-0.236106	-0.707603	-0.689293	-0.063465	0.326118	0.086498	0.161028	0.206476	-0.033501	-0.219826	0.238280	0.014378	0.355701	0.208543	-0.199894	-0.489705	0.237829	0.020711	0.587491	0.098594	-0.219608	-0.576233	0.477008	0.108969
83	2.733333	0.008124	-0.241067	0.029044	0.076900	-0.314961	0.025588	-0.043455	-0.337654	0.008192	0.010821	-0.121418	-0.007571	0.012791	-0.678807	0.135773	-0.116580	-0.720097	0.038291	-0.072321	-1.090753	0.045506	-0.183650	-0.797934	-0.365475	-0.085219	-1.202866	0.131254	-0.198236	-0.941159	-0.355928	-0.025148	0.383501	0.073497	0.191347	0.239780	-0.000927	-0.192405	0.229529	0.006991	0.439949	0.260799	-0.064391	-0.403826	0.150220	-0.104535	0.596890	0.297619	0.140521	-0.640607	0.062166	-0.032185
84	2.766667	-0.015985	-0.260111	0.041089	0.068820	-0.315131	0.019695	-0.039327	-0.364832	0.063749	-0.067046	-0.160194	-0.014097	0.247465	-0.606422	0.220043	0.063437	-0.648459	0.336059	0.347115	-0.984421	0.047508	-0.060975	-1.034226	0.235588	0.437421	-1.052643	0.131584	-0.011045	-1.114494	0.347184	-0.293789	0.271537	-0.061105	-0.084804	0.166678	-0.193979	-0.411121	0.120117	0.018727	-0.010654	0.226355	-0.425115	-0.610719	0.172798	0.183444	0.166688	0.374965	-0.312574	-0.556298	0.297761	0.406165
85	2.800000	0.039654	-0.262107	0.042790	0.109381	-0.316776	0.084599	0.014787	-0.367255	0.039735	0.042242	-0.162138	-0.030322	0.111061	-0.689142	0.102683	0.192287	-0.693265	0.082456	0.218270	-0.799132	-0.293297	0.421585	-0.872907	-0.217907	0.249744	-0.935527	-0.297495	0.483378	-0.995997	-0.168246	-0.025832	0.320216	-0.106806	0.198553	0.182823	-0.091409	-0.189064	0.174784	-0.146219	0.416863	0.201865	0.057519	-0.446111	0.148308	-0.182156	0.391762	0.176390	0.315986	-0.626532	0.184625	0.009841
86	2.833333	0.003986	-0.203399	0.032035	0.059801	-0.272899	-0.013025	-0.062524	-0.267423	-0.028149	0.025377	-0.080058	0.053080	-0.022978	-0.640742	-0.101949	-0.232205	-0.565475	-0.208886	-0.199296	-0.686629	-0.483395	-0.259130	-0.328742	-0.550869	-0.211015	-0.825160	-0.492396	-0.338474	-0.413814	-0.640603	0.124145	0.381706	0.205371	0.282036	0.213002	0.104012	-0.088041	0.314867	0.151160	0.533852	0.236876	0.047813	-0.341036	0.264961	0.188010	0.724224	0.174815	0.213462	-0.430715	0.325911	0.428819
87	2.866667	-0.012035	-0.264609	0.040637	0.051700	-0.346821	0.030851	-0.067646	-0.355132	0.059922	-0.030165	-0.151991	-0.024209	0.298843	-0.654801	0.104002	0.047975	-0.707462	0.088689	0.256730	-0.828943	-0.277852	0.206752	-0.862186	-0.267153	0.352822	-0.932202	-0.277677	0.230372	-1.009426	-0.278225	-0.023616	0.354018	-0.073551	0.173582	0.156501	-0.113214	-0.206259	0.223695	-0.067381	0.376592	0.045732	-0.222447	-0.446785	0.126437	-0.055691	0.544148	0.115312	-0.038875	-0.641993	0.278672	0.037347
88	2.900000	-0.011836	-0.248946	0.030000	0.061709	-0.314097	-0.005225	-0.052877	-0.346482	0.020622	-0.050799	-0.126265	0.002704	0.268933	-0.583778	-0.191821	-0.034903	-0.676586	-0.142099	0.152666	-0.625826	-0.600231	0.099260	-0.736924	-0.531609	0.232937	-0.700615	-0.690612	0.078826	-0.882870	-0.546740	-0.184458	0.349221	0.049028	0.011837	0.203333	-0.094568	-0.326899	0.200643	0.097033	0.143019	0.150311	-0.302662	-0.488957	0.092591	0.272663	0.349088	0.244130	-0.187406	-0.472210	0.269677	0.466870
89	2.933333	0.011020	-0.209316	0.032094	0.077449	-0.276190	-0.005136	-0.045961	-0.283740	-0.027857	0.019304	-0.078806	0.045622	0.205972	-0.640876	-0.082349	-0.092588	-0.648333	-0.144583	0.130246	-0.809940	-0.462142	-0.019052	-0.832930	-0.509583	0.179558	-0.940108	-0.473029	-0.087181	-0.944296	-0.446520	-0.003002	0.379631	0.231158	0.241376	0.250272	0.141691	-0.140026	0.257969	0.152677	0.442907	0.093384	0.173962	-0.374987	0.265282	0.039625	0.350372	0.049377	0.411434	-0.555828	0.418808	0.147540
